<svg id="Layer_1" data-name="Layer 1" xmlns="http://www.w3.org/2000/svg" viewBox="0 0 500 500"><defs><style>.cls-1{fill:#faae3b;}.cls-2{fill:#f8e6c5;}.cls-3{fill:none;stroke:#000;stroke-linecap:round;stroke-linejoin:round;stroke-width:20.07px;}.cls-4{opacity:0.15;}</style></defs><title>bread</title><path class="cls-1" d="M455.1,82.8c-21.78-10.55-51.63-18.88-91.94-20.14h-202V437.34H432.27a30,30,0,0,0,30-30V229.42c0-14.81,4.49-29.1,12.6-40.1C500.19,155,490.25,99.83,455.1,82.8Z"/><path class="cls-2" d="M250.39,82.8c-23.71-11.48-56.82-20.14-102.75-20.14S68.6,71.32,44.9,82.8C9.75,99.83-.19,155,25.11,189.32c8.11,11,12.6,25.29,12.6,40.1v177.9a30,30,0,0,0,30,30H227.56a30,30,0,0,0,30-30V229.42c0-14.81,4.49-29.1,12.61-40.1C295.47,155,285.53,99.83,250.39,82.8Z"/><path class="cls-3" d="M250.39,82.8c-23.71-11.48-56.82-20.14-102.75-20.14S68.6,71.32,44.9,82.8C9.75,99.83-.19,155,25.11,189.32c8.11,11,12.6,25.29,12.6,40.1v177.9a30,30,0,0,0,30,30H227.56a30,30,0,0,0,30-30V229.42c0-14.81,4.49-29.1,12.61-40.1C295.47,155,285.53,99.83,250.39,82.8Z"/><path class="cls-4" d="M478,104.19c-.61,2.09-3.08,70-199.41,70l-.05,0a69.85,69.85,0,0,1-8.37,15.14,62.87,62.87,0,0,0-8.66,16.7q-1,2.78-1.7,5.64H369s36.05,1.78,36.05,38.86V437.34h27.19a30,30,0,0,0,30-30V229.42a71.26,71.26,0,0,1,3.95-23.4h0a62.55,62.55,0,0,1,8.65-16.7C493.27,164.38,493,128.51,478,104.19Z"/><path class="cls-3" d="M455.1,82.8c-21.78-10.55-51.63-18.88-91.94-20.14h-202v.26c39,1.52,67.91,9.56,89.23,19.88,35.14,17,45.08,72.19,19.79,106.52-8.12,11-12.61,25.29-12.61,40.1v177.9a30,30,0,0,1-30,30H432.27a30,30,0,0,0,30-30V229.42c0-14.81,4.49-29.1,12.6-40.1C500.19,155,490.25,99.83,455.1,82.8Z"/></svg>